<svg width="892" height="642" viewBox="0 0 892 642" fill="none" xmlns="http://www.w3.org/2000/svg">
<path d="M891.027 640.831H1L118.727 1H773.397L891.027 640.831Z" fill="#404040" stroke="#696969" stroke-width="0.986726" stroke-miterlimit="10"/>
<path d="M68.97 271.4H823.109" stroke="#696969" stroke-width="0.986726" stroke-miterlimit="10"/>
<path d="M543.691 271.782C545.864 317.446 502.179 355.987 446.032 355.987C389.885 355.987 346.209 317.446 348.389 271.782C350.471 228.068 394.163 193.968 446.048 193.968C497.933 193.968 541.617 228.06 543.691 271.782Z" stroke="#696969" stroke-width="0.986726" stroke-miterlimit="10"/>
<path d="M534.116 70.4663C535.882 107.575 496.421 138.778 445.912 138.778C395.402 138.778 355.957 107.583 357.731 70.4663C359.437 34.79 398.898 6.85712 445.934 6.85712C492.964 6.85712 532.425 34.79 534.116 70.4663Z" stroke="#696969" stroke-width="0.986726" stroke-miterlimit="10"/>
<path d="M265.566 95.2319H631.609L622.305 1.15115H274.631L265.566 95.2319Z" fill="#404040" stroke="#696969" stroke-width="0.986726" stroke-miterlimit="10"/>
<path d="M366.998 54.0489H525.486L523.194 1.13535H369.29L366.998 54.0489Z" stroke="#696969" stroke-width="0.986726" stroke-miterlimit="10"/>
<path d="M338.918 523.306C341.481 468.268 390.54 425.55 448.602 425.55C506.666 425.55 555.815 468.268 558.498 523.306C561.317 581.106 512.273 630.136 448.828 630.136C385.383 630.136 336.227 581.106 338.925 523.306H338.918Z" stroke="#696969" stroke-width="0.986726" stroke-miterlimit="10"/>
<path d="M666.642 486.047H224.257L209.111 640.594H681.683L666.642 486.047Z" fill="#404040" stroke="#696969" stroke-width="0.986726" stroke-miterlimit="10"/>
<path d="M548.99 549.266H347.689L343.818 640.633H553.027L548.99 549.266Z" stroke="#696969" stroke-width="0.986726" stroke-miterlimit="10"/>
</svg>
